<?xml version="1.0" encoding="UTF-8"?>
<svg id="Layer_1" data-name="Layer 1" xmlns="http://www.w3.org/2000/svg" viewBox="0 0 24.67 23.07">
  <defs>
    <style>
      .cls-1 {
        fill: #b89a4e;
      }
    </style>
  </defs>
  <g>
    <path class="cls-1" d="M22.26,2.5l-19.64.02"/>
    <path class="cls-1" d="M22.26,0L2.62.02c-3.22,0-3.22,5,0,5l19.64-.02C25.48,5,25.48,0,22.26,0h0Z"/>
  </g>
  <g>
    <path class="cls-1" d="M2.52,20.57c0-5.76-.01-11.51-.02-17.27"/>
    <path class="cls-1" d="M5.02,20.57c0-5.76-.01-11.51-.02-17.27,0-1.35-1.15-2.5-2.5-2.5S0,1.95,0,3.3c0,5.76.01,11.51.02,17.27,0,1.35,1.15,2.5,2.5,2.5s2.5-1.14,2.5-2.5h0Z"/>
  </g>
</svg>