<?xml version="1.0" encoding="UTF-8"?>
<svg id="Layer_1" data-name="Layer 1" xmlns="http://www.w3.org/2000/svg" viewBox="0 0 80.43 70.57">
  <defs>
    <style>
      .cls-1 {
        fill: #b89a4e;
      }
    </style>
  </defs>
  <path class="cls-1" d="M22.54,20.45C9.58,20.45,0,30.54,0,45.94s9,24.63,21.82,24.63,22.54-8.86,22.54-25.56c0-14.4-8.57-24.56-21.82-24.56ZM36.05,55.06s-.01.02-.02.03c-.05.15-.11.3-.18.45,0,.01-.01.02-.01.04-.8,1.96-1.86,3.71-3.15,5.17-.95-1.85-1.85-5.17-2.89-5.1-1.23.1-1.39,4.78-2.56,4.84-1.23.08-2.35-5.04-3.09-4.96-.72.09-.05,4.99-1.2,5.2-1.15.2-3.34-4.45-4.09-4.27-.61.15.67,3.31-.39,3.7-1.35.5-5.36-3.91-6.13-3.56-.73.33,2.47,4.4,1.31,5.06-.24.14-.63.09-1.1-.06-3.8-3.66-5.85-9.53-5.85-15.8,0-5.23,1.25-10.19,3.74-13.89,1.08,1.71,2.14,5.43,3.25,5.32,1.22-.13,1.24-4.82,2.4-4.92,1.23-.11,2.51,4.97,3.24,4.86s-.1-4.99,1.04-5.23c1.15-.24,3.48,4.35,4.22,4.14.61-.17-.77-3.29.28-3.71,1.34-.54,5.48,3.74,6.24,3.37.71-.35-2.61-4.33-1.47-5.02.73-.44,2.81.75,4.46,1.4,2.44,3.68,3.63,8.49,3.63,13.18,0,3.52-.57,6.86-1.68,9.76Z"/>
  <path class="cls-1" d="M70.42,43.78v-.14c5.11-1.87,8.21-5.98,8.21-10.66,0-3.81-1.52-6.69-4.04-8.57-3.02-2.44-7.05-3.52-13.32-3.52-3.85,0-7.64.33-10.36.79-.47.08-.95,0-1.39-.17-1.25-.5-3-.87-4.02.42-1.06,1.35-.85,3.93,0,10.58,1.39,10.9,1.57,9.95,1.68,12.18.47,10.38-4.31,14.43-2.36,20.55.93,2.94,3.25,5.82,4.74,5.26.29-.11.58-.36.84-.79,2.1.26,5.21.5,9.15.5,7.92,0,13.39-1.44,16.77-4.54,2.45-2.37,4.11-5.54,4.11-9.72,0-7.2-5.4-11.01-10.01-12.17ZM55.71,27.79c.24-1.04,1.11-1.81,2.17-1.92.94-.1,2.16-.16,3.75-.16,6.34,0,10.66,2.23,10.66,7.92,0,4.68-3.89,8.14-10.51,8.14h-3.69c-1.17,0-2.18-.81-2.43-1.96l-.02-.11c-.86-3.93-.83-8,.07-11.92h0ZM61.35,65.31c-1.19,0-2.25-.02-3.17-.07-1.21-.07-2.19-.98-2.34-2.18l-.27-2.2c-.41-3.29-.42-6.62-.02-9.91l.27-2.25c.15-1.25,1.21-2.19,2.47-2.19h2.98c6.84,0,12.53,2.74,12.53,9.36,0,7.06-5.97,9.43-12.45,9.43Z"/>
  <path class="cls-1" d="M36.03,55.09c-.05.15-.11.3-.18.45.06-.19.12-.34.18-.45Z"/>
</svg>